<?xml version="1.0" encoding="UTF-8" standalone="no"?>
<!-- Created with Inkscape (http://www.inkscape.org/) -->

<svg
   width="245"
   height="245"
   viewBox="0 0 64.822915 64.822918"
   version="1.1"
   id="svg5"
   inkscape:version="1.1.1 (3bf5ae0d25, 2021-09-20)"
   sodipodi:docname="dunne-shield.svg"
   xmlns:inkscape="http://www.inkscape.org/namespaces/inkscape"
   xmlns:sodipodi="http://sodipodi.sourceforge.net/DTD/sodipodi-0.dtd"
   xmlns="http://www.w3.org/2000/svg"
   xmlns:svg="http://www.w3.org/2000/svg">
  <sodipodi:namedview
     id="namedview7"
     pagecolor="#ffffff"
     bordercolor="#666666"
     borderopacity="1.0"
     inkscape:pageshadow="2"
     inkscape:pageopacity="0.0"
     inkscape:pagecheckerboard="0"
     inkscape:document-units="px"
     showgrid="false"
     units="px"
     width="245px"
     inkscape:zoom="1.8607204"
     inkscape:cx="-9.4049593"
     inkscape:cy="124.41418"
     inkscape:window-width="1920"
     inkscape:window-height="1001"
     inkscape:window-x="-9"
     inkscape:window-y="-9"
     inkscape:window-maximized="1"
     inkscape:current-layer="layer1" />
  <defs
     id="defs2" />
  <g
     inkscape:label="Layer 1"
     inkscape:groupmode="layer"
     id="layer1">
    <g
       id="g2879"
       transform="matrix(0.57010771,0,0,0.57010771,-552.69279,-292.44261)">
      <path
         d="m 987.73314,520.96861 v 0.0625 h 77.14256 v -0.0625 z m 0,1.46289 v 0.59961 h 77.14256 v -0.59961 z m 0,1.99999 v 0.59961 h 77.14256 v -0.59961 z m 0,2.00001 v 0.5996 h 77.14256 v -0.5996 z m 0,2 v 0.59961 h 77.14256 v -0.59961 z m 0,1.99999 v 0.59961 h 77.14256 v -0.59961 z m 0,2.00001 v 0.5996 h 77.14256 v -0.5996 z m 0,2 v 0.59961 h 77.14256 v -0.59961 z m 0,1.99999 v 0.59961 h 77.14256 v -0.59961 z m 0,2.00001 v 0.5996 h 77.14256 v -0.5996 z m 0,2 v 0.59961 h 77.14256 v -0.59961 z m 0,1.99999 v 0.59962 h 77.14256 v -0.59962 z m 0,2.00001 v 0.59961 h 77.14256 v -0.59961 z m 0,2 v 0.59961 h 77.14256 v -0.59961 z m 0,1.99999 v 0.59962 h 77.14256 v -0.59962 z m 0,2.00001 v 0.59961 h 77.14256 v -0.59961 z m 0,2 v 0.59961 h 77.14256 v -0.59961 z m 0,1.99999 v 0.59962 h 77.14256 v -0.59962 z m 0,2.00001 v 0.59961 h 77.14256 v -0.59961 z m 0,2 v 0.59961 h 77.14256 v -0.59961 z m 0,1.99999 v 0.59962 h 77.14256 v -0.59962 z m 0,2.00001 v 0.59961 h 77.14256 v -0.59961 z m 0,2.00195 v 0.59765 h 77.14256 v -0.59765 z m 0,1.99804 v 0.59962 h 77.14256 v -0.59962 z m 0,2.00196 v 0.59766 h 77.14256 v -0.59766 z m 0,1.99805 v 0.5996 h 77.14256 v -0.5996 z m 0,1.99999 v 0.59962 h 77.14256 v -0.59962 z m 0,2.00196 v 0.59766 h 77.14256 v -0.59766 z m 0,1.99805 v 0.5996 h 77.14256 v -0.5996 z m 0,1.99999 v 0.59962 h 77.14256 v -0.59962 z m 0.0227,2.00196 c 0.004,0.19937 0.008,0.39903 0.0151,0.59766 h 77.06436 c 0.01,-0.19862 0.011,-0.39827 0.015,-0.59766 z m 0.0975,1.99805 c 0.0151,0.19993 0.0265,0.40053 0.045,0.5996 h 76.81046 c 0.019,-0.19906 0.03,-0.39967 0.045,-0.5996 z m 0.20107,1.99999 c 0.0265,0.19994 0.0476,0.40063 0.0764,0.59962 h 76.34569 c 0.03,-0.199 0.051,-0.39967 0.076,-0.59962 z m 0.30841,2.00196 c 0.0378,0.19891 0.0665,0.39982 0.10545,0.59766 h 75.67183 c 0.039,-0.19786 0.069,-0.39872 0.1054,-0.59766 z m 0.41407,1.99805 c 0.0472,0.19963 0.0884,0.40119 0.13871,0.5996 h 74.7753 c 0.05,-0.19835 0.091,-0.40004 0.1387,-0.5996 z m 0.52929,1.99999 c 0.0586,0.19919 0.10998,0.40179 0.17197,0.59962 h 73.65035 c 0.062,-0.19786 0.1134,-0.40043 0.172,-0.59962 z m 0.64649,2.00196 c 0.0711,0.1999 0.14249,0.39927 0.21694,0.59766 h 72.26949 c 0.074,-0.19839 0.1459,-0.39773 0.2169,-0.59766 z m 0.76757,1.99805 c 0.0847,0.20186 0.17764,0.39949 0.2657,0.5996 h 70.63666 c 0.088,-0.19993 0.1792,-0.39792 0.2638,-0.5996 z m 0.91015,1.99999 c 0.0987,0.2021 0.20447,0.39952 0.30652,0.59962 h 68.73429 c 0.1021,-0.20009 0.2079,-0.39752 0.3066,-0.59962 z m 1.05856,2.00196 c 0.113,0.20027 0.22752,0.39962 0.34393,0.59766 h 66.54292 c 0.1164,-0.19805 0.2309,-0.39739 0.3435,-0.59766 z m 1.20703,1.99805 c 0.12888,0.19937 0.25247,0.40277 0.38479,0.5996 h 64.04683 c 0.1323,-0.19642 0.2544,-0.40064 0.3828,-0.5996 z m 1.37695,1.99999 c 0.14966,0.20225 0.30349,0.40042 0.45705,0.59962 h 61.14842 c 0.1534,-0.19922 0.3076,-0.39733 0.457,-0.59962 z m 1.58985,2.00196 c 0.17045,0.20122 0.34318,0.40001 0.51757,0.59766 h 57.84765 c 0.1742,-0.19767 0.3473,-0.39645 0.5176,-0.59766 z m 1.8164,1.99805 c 0.19615,0.20152 0.3931,0.4024 0.59376,0.5996 h 54.06246 c 0.2007,-0.19721 0.3975,-0.39809 0.5938,-0.5996 z m 2.09962,2 c 0.2286,0.20205 0.458,0.40293 0.6914,0.59961 h 49.6679 c 0.2336,-0.19669 0.4628,-0.39755 0.6915,-0.59961 z m 2.4453,2.00195 c 0.2744,0.20534 0.5577,0.39952 0.8379,0.59766 h 44.4844 c 0.28,-0.19813 0.5633,-0.39231 0.8378,-0.59766 z m 2.9512,1.99805 c 0.3375,0.207 0.6829,0.40282 1.0273,0.5996 h 38.2031 c 0.3443,-0.1968 0.6897,-0.39261 1.0274,-0.5996 z m 3.709,2 c 0.4376,0.20624 0.8777,0.40953 1.3242,0.59961 h 30.1913 c 0.4465,-0.19008 0.8866,-0.39337 1.3243,-0.59961 z m 5.1894,2.00195 c 0.7328,0.22272 1.4779,0.41811 2.2285,0.59766 h 18.0059 c 0.7503,-0.17949 1.494,-0.37505 2.2265,-0.59766 z"
         style="fill:#000000;fill-opacity:1;stroke:none;stroke-width:1.97516"
         id="rect10036-9-8-8-5-4"
         inkscape:export-filename="C:\Users\bjpco\Desktop\rect10036-4-02-93.png"
         inkscape:export-xdpi="300"
         inkscape:export-ydpi="300" />
      <path
         id="path7991-3-3-5"
         style="font-variation-settings:normal;vector-effect:none;fill:none;fill-opacity:1;fill-rule:evenodd;stroke:#000000;stroke-width:1.32283;stroke-linecap:round;stroke-linejoin:round;stroke-miterlimit:4;stroke-dasharray:none;stroke-dashoffset:0;stroke-opacity:1;paint-order:markers stroke fill;stop-color:#000000"
         d="m 1064.8755,579.52708 c 0,21.30242 -17.2674,38.57144 -38.57,38.57143 -21.3025,0 -38.57154,-17.26901 -38.57154,-38.57143 v -58.55809 h 77.14154 z"
         sodipodi:nodetypes="cscccc"
         inkscape:export-filename="C:\Users\bjpco\Desktop\rect10036-4-02-93.png"
         inkscape:export-xdpi="300"
         inkscape:export-ydpi="300" />
      <path
         inkscape:export-ydpi="300"
         inkscape:export-xdpi="300"
         inkscape:export-filename="C:\Users\bjpco\Desktop\rect10036-4-02-93.png"
         sodipodi:nodetypes="cscccscccccccscccccccscccscccscccscccscccscccscccscccscccscccccccccccccsccccsccccccccsccscccsccssccccsccccccscccccccccccccccccccccczccccccccccccccccccccccsscscccsscccsscccsccsccssccsccccscccccscccccccccccccscccscccscccscccscccscccscccccccscccscccccccscccccccscccscccsscsscscsccccscscccccccczcsssssccccccccccccccccccccc"
         d="m 998.33262,529.93432 c -2.3899,0.10583 -4.49372,4.4089 -3.21742,8.62761 1.26334,4.17581 4.54755,5.99187 6.7169,8.38469 l 0.03,0.21468 c -3.13646,-1.75605 -6.79321,-3.83176 -7.77926,-9.39761 -0.003,0.004 -0.60807,0.9905 0.23169,2.91473 1.99672,4.57445 4.75002,5.37181 7.64487,7.19827 l 0.087,0.63122 c -2.44668,-2.02077 -5.54093,-2.26632 -7.59473,-6.77522 -1.42836,1.33538 -1.65625,2.75372 -0.67261,4.66669 2.16364,2.77009 5.8535,4.71791 9.27884,5.80218 l 0.1806,0.34054 c -5.14277,-0.71184 -7.91519,-2.44245 -9.61685,-4.26138 0,0 -0.15987,1.15623 0.7154,1.86565 1.2782,1.03574 3.86836,2.54944 9.29645,3.13769 l 0.2037,0.38316 c -3.1354,0.3797 -8.16598,-0.28459 -10.40607,-2.79809 0.17273,2.36349 2.47405,5.32048 5.00559,5.27062 l 6.04948,-0.13719 0.1024,0.13341 c -2.87,0.7267 -7.20558,0.86616 -9.80733,-0.19351 0,0 0.3891,0.93838 0.9679,1.1074 2.13362,0.6231 4.45083,0.63345 9.31713,-0.29178 l 0.243,0.31749 c -2.9785,0.74921 -4.9294,1.42181 -8.7139,0.99741 0,0 0.52339,2.09624 1.48839,2.30785 3.04681,0.66823 8.44671,-1.0092 8.44671,-1.0092 l 0.093,0.14929 c -2.3905,1.07766 -4.8251,1.86368 -7.64783,2.05686 0,0 0.192,0.61637 1.24033,0.53083 1.6868,-0.13757 4.4395,-0.96714 6.7287,-2.07311 l 0.1024,0.16403 c -1.6323,1.29695 -4.4272,2.57284 -6.8816,2.56702 0,0 0.4349,1.44559 1.0521,1.69066 2.2164,0.88014 6.9177,-1.82578 6.9177,-1.82578 l 0.195,0.26344 c -1.5759,1.34404 -3.2839,2.34217 -5.5622,2.80917 0,0 0.6879,0.543 1.2381,0.39942 1.5223,-0.39727 3.2583,-1.58895 4.6719,-2.73827 l 0.1455,0.19654 c -1.2461,1.46248 -2.659,2.72447 -4.6387,3.30674 0,0 1.4829,1.09334 2.7346,0.92361 1.8117,-0.24567 5.1303,-2.98416 5.1303,-2.98416 l 0.175,0.0189 c -0.6548,1.0757 -1.1799,2.18408 -2.3049,3.12295 0,0 0.5816,0.19238 1.0241,-0.18671 0.9588,-0.82159 1.1876,-1.62002 1.9911,-2.86012 l 0.5279,0.0567 -1.5815,2.63712 c 0,0 1.3538,0.56784 1.9403,0.27968 1.2356,-0.60683 2.0332,-3.59466 2.0332,-3.59466 l 0.1958,-0.0472 c 0.011,1.61409 -0.5335,2.8733 -1.3282,4.18458 0,0 0.7259,-0.0189 1.2529,-0.76929 0.499,-0.70903 0.845,-1.54007 0.97,-3.6331 l 0.3742,-0.0907 -0.3345,4.29607 c 0,0 0.8797,-0.0227 1.354,-0.367 0.2998,-0.21732 0.6387,-1.25948 0.6387,-1.25948 0.1859,1.75305 0.8762,3.40489 1.7984,5.0107 0,0 -5.8727,-3.09944 -8.8955,-0.36094 -1.3821,0.84465 -1.1545,2.48447 -3.3984,3.3614 0.7355,0.0699 1.3246,0.23055 1.7978,0.40977 -0.3485,3.02264 1.2008,6.04683 3.1524,8.60837 -1.6182,0.94386 -2.6619,1.88749 -3.7741,2.83132 -0.1735,-0.77023 -0.6604,-1.65801 -0.9634,-2.1617 -0.4153,-0.69014 -1.0372,-1.44034 -1.7402,-1.77408 -0.4637,-0.76554 -1.1556,-1.13809 -2.1551,-1.1436 -0.3549,-10e-4 -0.7483,0.0419 -1.1841,0.13077 0.9895,0.17461 1.6635,0.48351 2.0996,0.98044 -0.6103,0.24643 -1.0822,0.82829 -0.6356,1.49946 0.67,1.0072 1.5888,1.10536 2.5648,1.58139 0.5277,0.25738 0.879,1.02897 1.1797,1.57478 -0.034,0.0264 -0.071,0.0567 -0.1062,0.0847 -0.3999,-0.75243 -1.6313,-1.48313 -2.2894,-1.83538 -0.6115,-0.32731 -1.3781,-0.61493 -2.0738,-0.64157 -0.2321,-0.008 -0.4558,0.0113 -0.6637,0.0688 -0.1255,0.034 -0.2491,0.0987 -0.3663,0.18029 -1.0297,-0.0983 -1.8861,0.46602 -2.7065,1.7608 0.7656,-0.55888 1.4229,-0.8304 2.0495,-0.83501 -0.1021,0.40585 0.01,0.82092 0.4983,1.05578 1.091,0.52108 1.9305,0.1353 3.0122,0.0442 0.5027,-0.0423 1.0891,0.31105 1.5866,0.61126 -0.1644,0.0828 -0.3009,0.17121 -0.4157,0.26268 -0.3969,-0.15874 -0.9274,-0.21317 -1.4463,-0.21619 -0.5051,-0.003 -0.9978,0.0416 -1.3422,0.082 -0.9184,0.1081 -2.0224,0.43159 -2.5736,1.09489 -0.083,0.10016 -0.1474,0.22262 -0.1973,0.35566 -0.1236,0.0495 -0.2578,0.12699 -0.4024,0.24642 -1.0136,0.83732 -1.1521,1.95591 -0.454,3.59248 -0.034,-1.25703 0.232,-2.07617 0.8837,-2.61649 0.1625,0.34432 0.4775,0.57683 0.9738,0.49542 1.1938,-0.19578 1.6619,-0.99288 2.4976,-1.68627 0.3765,-0.31257 1.03,-0.36359 1.5984,-0.4009 0.085,0.79597 1.1723,1.48861 1.9631,1.21818 0.3474,0.41768 0.7147,0.8919 0.7472,1.3496 0.077,1.08317 -0.175,1.97223 0.5086,2.9701 0.2385,0.34772 0.5483,0.45048 0.8549,0.4046 -0.053,0.6607 -0.4112,1.31168 -1.1044,2.04283 1.5127,-0.70613 2.1731,-1.56412 2.0871,-2.74125 0.1153,-0.17839 0.1954,-0.37153 0.217,-0.55888 0.098,-0.85689 -0.4317,-1.8782 -0.9886,-2.61649 -0.347,-0.45997 -0.9701,-1.21584 -1.6065,-1.66851 0.068,-0.22262 0.1085,-0.49126 0.1085,-0.81581 3.5093,-2.24534 5.9558,-1.79959 7.399,-5.61169 0,0 -3.8511,-3.43026 -2.2488,-6.06282 1.6025,-2.63252 5.3799,0.45778 5.3799,0.45778 0,0 3.4339,3.31903 2.7472,4.57806 -0.6867,1.25904 -2.2452,2.20558 -2.5811,2.85793 -0.5607,1.08877 -0.1485,2.34418 -2.3817,3.82575 2.7562,-0.32579 3.1233,-3.15231 4.0251,-3.28312 0.5001,2.21442 -0.7071,3.88014 -2.2672,4.49764 l -2.6025,1.02988 c -1.8309,0.72465 -0.6931,1.79255 -3.3962,2.76249 2.7783,0.0937 2.2088,-0.75137 4.3442,-1.7252 0,0 0.3254,2.06801 -1.4286,3.23516 2.339,-0.69203 2.168,-2.33624 2.9797,-3.51571 0.6867,-1.03011 3.8103,-2.17867 3.8103,-2.17867 -0.522,0.88229 -0.3043,1.87029 -1.7431,2.62166 1.5103,0.24492 1.1086,-0.56813 2.5409,0.17726 0,0 -1.2996,0.56901 -2.2153,1.48468 -2.4903,1.04519 -2.4543,3.60246 -4.4644,4.45258 2.1983,0.32391 4.7961,-4.66631 5.8069,-3.94306 0.6205,1.99143 -3.0592,2.50367 -2.9453,7.15903 1.106,-2.9816 3.3812,-3.71441 4.5258,-5.88189 0,0 0.6999,2.14363 -0.3871,4.35258 -0.9319,1.73428 -2.6394,2.95575 -1.6057,5.10705 0.104,-1.50395 0.8039,-3.11943 1.4729,-3.2344 2.0043,1.90779 -0.015,1.51929 -0.4023,3.37765 l 0.5368,1.53055 c -0.1512,-1.24531 0.6601,-1.88764 1.0501,-2.05402 0.397,1.83171 0.1682,4.0227 0.5283,4.02327 0.3602,5.7e-4 0.2548,-2.17701 0.5675,-4.02327 0.39,0.1663 1.2013,0.88672 1.0891,2.09303 l 0.4588,-1.56956 c -0.073,-1.62422 -2.4067,-1.46986 -0.4024,-3.37765 0.6691,0.1149 1.369,1.73045 1.4729,3.2344 1.0337,-2.1513 -0.6349,-3.56787 -1.5667,-5.30215 -1.087,-2.20894 -0.153,-4.15748 -0.153,-4.15748 1.1446,2.16748 3.1466,2.9003 4.2526,5.88189 0.1138,-4.65536 -3.5268,-5.12859 -2.9063,-7.12002 1.0108,-0.72326 3.5696,4.22815 5.7679,3.90406 -2.0101,-0.85013 -1.974,-3.4074 -4.4644,-4.45259 -0.9156,-0.91566 -2.2543,-1.48467 -2.2543,-1.48467 1.1721,-0.7197 1.2517,-0.0952 2.5799,-0.17726 -1.4387,-0.75137 -1.2211,-1.73938 -1.7431,-2.62167 0,0 3.1236,1.14856 3.8103,2.17867 0.8117,1.17948 0.6407,2.82368 2.9797,3.51572 -1.754,-1.16716 -1.4286,-3.23517 -1.4286,-3.23517 2.1354,0.9738 1.4931,1.81905 4.2713,1.72521 -2.703,-0.96994 -1.4925,-2.03785 -3.3233,-2.7625 l -2.6025,-1.02992 c -1.5601,-0.6175 -2.7673,-2.28317 -2.2672,-4.4976 0.9018,0.13077 1.2689,2.95733 4.0251,3.28313 -2.2332,-1.48158 -1.821,-2.73699 -2.3817,-3.82579 -0.336,-0.65231 -1.8943,-1.59886 -2.5811,-2.85789 -0.6867,-1.25904 2.7472,-4.57811 2.7472,-4.57811 0,0 3.7774,-3.09025 5.3799,-0.45774 1.6024,2.63256 -2.2488,6.06282 -2.2488,6.06282 1.4432,3.81211 3.8897,3.36635 7.399,5.61169 0.023,0.28536 0.074,0.52067 0.1346,0.73164 -0.6787,0.43608 -1.3615,1.26252 -1.7313,1.75268 -0.5568,0.7383 -1.0865,1.7596 -0.9885,2.61649 0.023,0.18747 0.1016,0.38053 0.2169,0.55888 -0.086,1.17714 0.5744,2.03513 2.0871,2.74126 -0.6932,-0.73115 -1.0513,-1.38214 -1.1045,-2.04284 0.3066,0.0457 0.6167,-0.0567 0.855,-0.4046 0.6838,-0.99787 0.4318,-1.88693 0.5087,-2.9701 0.03,-0.45143 0.3898,-0.91903 0.7331,-1.33262 0.7982,0.53582 1.9794,-0.31597 2.1026,-1.22627 0.537,0.0382 1.124,0.10242 1.4729,0.39201 0.8357,0.69339 1.3038,1.49042 2.4976,1.68624 0.4963,0.0813 0.8113,-0.15118 0.9738,-0.49539 0.6518,0.54033 0.9188,1.35946 0.8837,2.6165 0.6981,-1.63658 0.5596,-2.75517 -0.454,-3.59252 -0.1448,-0.11943 -0.2785,-0.19691 -0.4024,-0.24643 -0.049,-0.13341 -0.1141,-0.25587 -0.1969,-0.35565 -0.5513,-0.66327 -1.6553,-0.98676 -2.5736,-1.09485 -0.3444,-0.0404 -0.8372,-0.085 -1.3423,-0.082 -0.4529,0.003 -0.9125,0.0465 -1.2868,0.16252 -0.1243,-0.10091 -0.2819,-0.192 -0.4673,-0.27326 0.4735,-0.28422 1.0117,-0.58639 1.4788,-0.54705 1.0817,0.0911 1.9212,0.47679 3.0122,-0.0442 l 7e-4,-7.9e-4 c 0.4903,-0.23471 0.5997,-0.64917 0.4976,-1.05498 0.6261,0.004 1.2832,0.27628 2.048,0.83425 -0.7736,-1.22052 -1.5781,-1.79331 -2.5308,-1.77188 -0.055,0.001 -0.1127,0.0113 -0.169,0.0151 -0.1187,-0.0831 -0.2438,-0.14853 -0.3715,-0.18368 -0.8315,-0.22904 -1.9222,0.13644 -2.7376,0.5729 -0.6423,0.34393 -1.8284,1.04897 -2.2569,1.7822 -0.034,-0.0302 -0.072,-0.0575 -0.1077,-0.0866 0.2941,-0.54164 0.6394,-1.27166 1.1488,-1.52008 0.976,-0.47607 1.8948,-0.57423 2.5648,-1.58143 0.4467,-0.67129 -0.026,-1.25284 -0.6357,-1.49946 0.4361,-0.49693 1.1101,-0.80602 2.0997,-0.98044 -0.4359,-0.0888 -0.8292,-0.13266 -1.1842,-0.13077 -0.9988,0.004 -1.6906,0.37757 -2.1543,1.14213 -0.7036,0.33336 -1.3261,1.08495 -1.7416,1.77559 -0.2941,0.48884 -0.7607,1.33923 -0.9465,2.09302 -1.0821,-0.92073 -2.1128,-1.84188 -3.6914,-2.76264 1.9969,-2.62103 3.5719,-5.72633 3.1244,-8.81881 0.4474,-0.15572 0.9846,-0.29178 1.6427,-0.35452 -2.2182,-0.86691 -2.0223,-2.47907 -3.3526,-3.33188 -3.0603,-2.52409 -8.7582,0.48654 -8.7582,0.48654 0.9222,-1.60585 1.6126,-3.25766 1.7984,-5.01075 0,0 0.3391,1.04201 0.6386,1.25953 0.4744,0.34431 1.354,0.36699 1.354,0.36699 l -0.3344,-4.29608 0.3741,0.0907 c 0.1251,2.09299 0.4711,2.92403 0.9701,3.63311 0.527,0.74869 1.2529,0.76929 1.2529,0.76929 -0.7947,-1.31131 -1.3396,-2.57054 -1.3282,-4.18462 l 0.1958,0.0472 c 0,0 0.7976,2.98783 2.0332,3.59471 0.5866,0.288 1.9403,-0.27968 1.9403,-0.27968 l -1.5814,-2.63717 0.5278,-0.0567 c 0.8036,1.2401 1.0323,2.03852 1.9912,2.86012 0.4424,0.37908 1.024,0.18671 1.024,0.18671 -1.125,-0.93891 -1.6501,-2.0473 -2.3049,-3.12295 l 0.175,-0.0189 c 0,0 3.3187,2.73838 5.1303,2.98412 1.2517,0.1697 2.7346,-0.92356 2.7346,-0.92356 -1.9796,-0.58227 -3.3925,-1.8443 -4.6386,-3.30678 l 0.1455,-0.19654 c 1.4135,1.14932 3.1496,2.34101 4.6719,2.73831 0.5502,0.14362 1.2381,-0.39942 1.2381,-0.39942 -2.2783,-0.46704 -3.9863,-1.46513 -5.5623,-2.80917 l 0.195,-0.26343 c 0,0 4.7014,2.70587 6.9178,1.82573 0.6171,-0.24491 1.052,-1.69066 1.052,-1.69066 -2.4543,0.008 -5.2492,-1.27007 -6.8815,-2.56698 l 0.1024,-0.16403 c 2.2892,1.10597 5.0419,1.9355 6.7287,2.07311 1.0485,0.0854 1.2403,-0.53084 1.2403,-0.53084 -2.8226,-0.19313 -5.2573,-0.9792 -7.6479,-2.05685 l 0.093,-0.14929 c 0,0 5.3999,1.67743 8.4467,1.00924 0.965,-0.21165 1.4884,-2.30789 1.4884,-2.30789 -3.7845,0.4244 -5.7354,-0.24831 -8.7139,-0.99742 l 0.243,-0.31748 c 4.8663,0.92504 7.1835,0.91469 9.3171,0.29178 0.5788,-0.16894 0.9679,-1.10744 0.9679,-1.10744 -2.6018,1.0596 -6.9373,0.92013 -9.8074,0.19352 l 0.1025,-0.13342 6.0494,0.13719 c 2.5316,0.0499 4.833,-2.90713 5.0056,-5.27062 -2.2401,2.51369 -7.2707,3.17782 -10.4061,2.7981 l 0.2037,-0.38317 c 5.4281,-0.5882 8.0184,-2.10191 9.2965,-3.13769 0.8754,-0.70941 0.7154,-1.86565 0.7154,-1.86565 -1.7017,1.81893 -4.4741,3.54954 -9.6169,4.26138 l 0.1807,-0.34016 c 3.4253,-1.08423 7.1151,-3.03208 9.2788,-5.80218 0.9836,-1.91297 0.7557,-3.33127 -0.6726,-4.66665 -2.0538,4.5089 -5.1481,4.75442 -7.5947,6.77522 l 0.086,-0.63126 c 2.8949,-1.82646 5.6482,-2.62379 7.645,-7.19826 0.8399,-1.9242 0.2347,-2.91073 0.2317,-2.91474 -0.9861,5.56585 -4.6428,7.64157 -7.7793,9.39761 l 0.03,-0.21468 c 2.1693,-2.39279 5.4536,-4.20885 6.7169,-8.38466 1.2763,-4.21871 -0.8276,-8.52192 -3.2175,-8.62756 0.8091,4.58789 -0.2407,10.51823 -2.3802,11.96462 0,0 0.6165,-1.49911 0.019,-2.33004 -1.6945,2.32301 -4.8449,3.26563 -6.1167,3.766 -1.7285,0.68009 -5.4943,3.89185 -5.6088,5.72315 -0.1145,1.83137 2.6327,2.74707 2.9761,3.31937 0.3432,0.57226 -2.747,4.34921 -3.5482,4.34921 -0.8012,0 -0.9159,-1.37317 -2.175,-1.48766 -1.259,-0.11452 -3.3191,2.17425 -4.1203,2.17425 -0.4234,-2.39168 -0.6038,-3.0585 -0.4474,-3.52142 0.1693,-0.50105 0.8365,-0.28158 1.3356,-0.18898 -1.701,-3.01712 -0.9038,-6.07147 -0.7406,-7.90042 0.2903,-3.25531 0.3951,-7.63294 -0.079,-10.40908 -0.094,-0.9134 0.5415,-0.47055 1.1348,-0.5147 -0.6113,-0.24983 -0.3043,-0.68697 -1.1473,-0.9123 0.3942,-0.26344 0.6035,-0.65934 1.9507,-0.33827 -2.8147,-1.47406 -2.8159,-2.4437 -6.3524,-2.99313 -2.5218,-0.39175 -4.5889,0.53662 -6.1551,1.77188 -1.5807,-0.52781 -4.6787,0.95735 -5.0772,2.3492 -0.156,0.54595 0.03,0.53072 0.3455,0.39795 1.0054,-0.56149 1.8262,-0.38502 2.6445,0.40902 1.1706,-0.47993 2.6307,0.56591 3.1496,1.32892 -3.2629,-1.25042 -3.9576,0.81241 -7.3312,0.33751 1.6053,1.45867 5.6337,-0.63201 7.2381,1.11405 -2.2494,0.58462 -0.5421,1.37205 -3.2839,1.68106 0.7601,1.16818 2.238,0.85735 4.6852,0.83429 0.9324,5.77259 -3.2092,11.28511 -5.1157,12.81661 0.2135,0.0435 1.2056,-0.13644 1.332,0.23849 0.1266,0.37455 -1.6221,2.16325 -1.8096,3.49947 0,0 -2.8613,-2.2887 -4.1203,-2.17425 -1.2591,0.11452 -1.3738,1.48762 -2.175,1.48762 -0.8012,0 -3.8916,-3.77692 -3.5482,-4.34922 0.3436,-0.5723 3.0905,-1.488 2.976,-3.31933 -0.1145,-1.8313 -3.8802,-5.04306 -5.6087,-5.72319 -1.2717,-0.50037 -4.4222,-1.44295 -6.1167,-3.76596 -0.5987,0.83093 0.019,2.33004 0.019,2.33004 -2.13943,-1.44639 -3.18924,-7.37673 -2.38022,-11.96462 z m 59.88438,7.82952 c 10e-5,-3.8e-4 -1e-4,-10e-4 0,-10e-4 h -8e-4 z m -64.13467,0 7.1e-4,-10e-4 h -7.1e-4 c 7e-5,3.8e-4 -8e-5,10e-4 0,10e-4 z m 31.42057,-4.86897 4.0266,0.72868 c -0.5302,0.0189 -1.2009,-0.0265 -1.8494,-0.0556 0.2691,0.17461 0.4989,0.39027 0.4784,0.57955 -0.041,0.37606 -1.0528,0.50332 -1.337,0.45181 -0.2842,-0.0518 -1.23,-0.53421 -1.1894,-0.9103 0.011,-0.10658 0.1013,-0.19314 0.2306,-0.26155 0.059,-0.27703 -0.2563,-0.3462 -0.3595,-0.53302 z"
         style="fill:#ffffff;fill-opacity:1;stroke:#ffffff;stroke-width:3.40157;stroke-linecap:butt;stroke-linejoin:round;stroke-miterlimit:4;stroke-dasharray:none;stroke-opacity:1;paint-order:stroke markers fill"
         id="path1584-48-2-2-2-8" />
      <path
         id="path1584-48-2-2-2"
         style="fill:#ffffff;fill-opacity:1;stroke:#000000;stroke-width:1.51181;stroke-linecap:butt;stroke-linejoin:round;stroke-miterlimit:4;stroke-dasharray:none;stroke-opacity:1;paint-order:stroke markers fill"
         d="m 998.33262,529.93433 c -2.3899,0.10582 -4.49372,4.40889 -3.21742,8.6276 1.26334,4.17581 4.54755,5.99187 6.7169,8.38469 l 0.03,0.21468 c -3.13646,-1.75604 -6.7932,-3.83176 -7.77926,-9.39761 -0.003,0.004 -0.60807,0.99051 0.23169,2.91474 1.99672,4.57444 4.75002,5.37181 7.64487,7.19826 l 0.087,0.63122 c -2.44668,-2.02076 -5.54092,-2.26632 -7.59472,-6.77522 -1.42836,1.33538 -1.65626,2.75373 -0.67262,4.6667 2.16364,2.77009 5.8535,4.7179 9.27884,5.80218 l 0.1806,0.34053 c -5.14277,-0.71184 -7.91518,-2.44244 -9.61684,-4.26138 0,0 -0.15988,1.15623 0.71539,1.86565 1.2782,1.03574 3.86836,2.54944 9.29645,3.13769 l 0.2037,0.38317 c -3.1354,0.37969 -8.16597,-0.2846 -10.40606,-2.7981 0.17272,2.36349 2.47405,5.32048 5.00558,5.27063 l 6.04948,-0.1372 0.1024,0.13342 c -2.87,0.72669 -7.20558,0.86616 -9.80733,-0.19351 0,0 0.3891,0.93838 0.9679,1.1074 2.13362,0.62309 4.45083,0.63345 9.31713,-0.29178 l 0.243,0.31748 c -2.9785,0.74921 -4.9294,1.42182 -8.71389,0.99742 0,0 0.52338,2.09624 1.48838,2.30785 3.04681,0.66822 8.44671,-1.00921 8.44671,-1.00921 l 0.093,0.14929 c -2.3905,1.07766 -4.8251,1.86369 -7.64783,2.05686 0,0 0.192,0.61637 1.24033,0.53084 1.6868,-0.13758 4.4395,-0.96715 6.7287,-2.07311 l 0.1024,0.16403 c -1.6323,1.29694 -4.4272,2.57284 -6.8816,2.56701 0,0 0.4349,1.4456 1.0521,1.69066 2.2164,0.88014 6.9177,-1.82577 6.9177,-1.82577 l 0.195,0.26343 c -1.5759,1.34404 -3.2839,2.34217 -5.5622,2.80918 0,0 0.6879,0.543 1.2381,0.39941 1.5223,-0.39726 3.2583,-1.58895 4.6719,-2.73827 l 0.1455,0.19654 c -1.2461,1.46249 -2.659,2.72447 -4.6387,3.30675 0,0 1.4829,1.09334 2.7346,0.9236 1.8117,-0.24567 5.1303,-2.98416 5.1303,-2.98416 l 0.175,0.0189 c -0.6548,1.07569 -1.1799,2.18407 -2.3049,3.12294 0,0 0.5816,0.19238 1.0241,-0.18671 0.9588,-0.82159 1.1876,-1.62001 1.9911,-2.86011 l 0.5279,0.0567 -1.5815,2.63712 c 0,0 1.3538,0.56784 1.9403,0.27969 1.2356,-0.60684 2.0332,-3.59467 2.0332,-3.59467 l 0.1958,-0.0472 c 0.011,1.61409 -0.5335,2.87331 -1.3282,4.18458 0,0 0.7259,-0.0189 1.2529,-0.76928 0.499,-0.70904 0.845,-1.54008 0.97,-3.63311 l 0.3742,-0.0907 -0.3345,4.29607 c 0,0 0.8797,-0.0227 1.354,-0.36699 0.2998,-0.21733 0.6387,-1.25949 0.6387,-1.25949 0.1859,1.75306 0.8762,3.4049 1.7984,5.01071 0,0 -5.8727,-3.09944 -8.8955,-0.36095 -1.3821,0.84465 -1.1545,2.48447 -3.3984,3.3614 0.7355,0.0699 1.3246,0.23055 1.7978,0.40978 -0.3485,3.02264 1.2008,6.04682 3.1524,8.60836 -1.6182,0.94386 -2.6619,1.8875 -3.7741,2.83132 -0.1735,-0.77023 -0.6604,-1.658 -0.9634,-2.1617 -0.4153,-0.69014 -1.0372,-1.44034 -1.7402,-1.77407 -0.4637,-0.76554 -1.1556,-1.13809 -2.1551,-1.14361 -0.3549,-10e-4 -0.7483,0.0419 -1.1841,0.13077 0.9895,0.17461 1.6635,0.48352 2.0996,0.98045 -0.6103,0.24642 -1.0822,0.82828 -0.6356,1.49945 0.67,1.00721 1.5888,1.10536 2.5648,1.58139 0.5277,0.25739 0.879,1.02898 1.1797,1.57478 -0.034,0.0265 -0.071,0.0567 -0.1062,0.0847 -0.3999,-0.75243 -1.6313,-1.48312 -2.2894,-1.83537 -0.6115,-0.32731 -1.3781,-0.61493 -2.0738,-0.64158 -0.2321,-0.008 -0.4558,0.0113 -0.6637,0.0688 -0.1255,0.034 -0.2491,0.0986 -0.3663,0.18028 -1.0297,-0.0983 -1.8861,0.46602 -2.7065,1.76081 0.7656,-0.55888 1.4229,-0.8304 2.0495,-0.83501 -0.1021,0.40584 0.01,0.82091 0.4983,1.05577 1.091,0.52108 1.9305,0.13531 3.0122,0.0442 0.5027,-0.0423 1.0891,0.31106 1.5866,0.61126 -0.1644,0.0828 -0.3009,0.17122 -0.4157,0.26268 -0.3969,-0.15874 -0.9274,-0.21317 -1.4463,-0.21619 -0.5051,-0.003 -0.9978,0.0416 -1.3422,0.082 -0.9184,0.10809 -2.0224,0.43158 -2.5736,1.09489 -0.083,0.10016 -0.1474,0.22261 -0.1973,0.35565 -0.1236,0.0495 -0.2578,0.12699 -0.4024,0.24643 -1.0136,0.83731 -1.1521,1.9559 -0.454,3.59248 -0.034,-1.25704 0.232,-2.07617 0.8837,-2.6165 0.1625,0.34432 0.4775,0.57684 0.9738,0.49543 1.1938,-0.19578 1.6619,-0.99289 2.4976,-1.68628 0.3765,-0.31257 1.03,-0.36359 1.5984,-0.40089 0.085,0.79597 1.1723,1.4886 1.9631,1.21818 0.3474,0.41767 0.7147,0.89189 0.7472,1.34959 0.077,1.08317 -0.175,1.97223 0.5086,2.9701 0.2385,0.34772 0.5483,0.45049 0.8549,0.4046 -0.053,0.6607 -0.4112,1.31169 -1.1044,2.04284 1.5127,-0.70613 2.1731,-1.56412 2.0871,-2.74126 0.1153,-0.17839 0.1954,-0.37152 0.217,-0.55888 0.098,-0.85689 -0.4317,-1.87819 -0.9886,-2.61649 -0.347,-0.45997 -0.9701,-1.21583 -1.6065,-1.66851 0.068,-0.22261 0.1085,-0.49126 0.1085,-0.81581 3.5093,-2.24534 5.9558,-1.79958 7.399,-5.61169 0,0 -3.8511,-3.43026 -2.2488,-6.06282 1.6025,-2.63251 5.3799,0.45778 5.3799,0.45778 0,0 3.4339,3.31903 2.7472,4.57807 -0.6867,1.25903 -2.2452,2.20558 -2.5811,2.85792 -0.5607,1.08877 -0.1485,2.34418 -2.3817,3.82576 2.7562,-0.3258 3.1233,-3.15232 4.0251,-3.28313 0.5001,2.21443 -0.7071,3.88014 -2.2672,4.49764 l -2.6025,1.02988 c -1.8309,0.72465 -0.6931,1.79256 -3.3962,2.7625 2.7783,0.0937 2.2088,-0.75137 4.3442,-1.72521 0,0 0.3254,2.06801 -1.4286,3.23517 2.339,-0.69204 2.168,-2.33624 2.9797,-3.51572 0.6867,-1.03011 3.8103,-2.17867 3.8103,-2.17867 -0.522,0.88229 -0.3043,1.8703 -1.7431,2.62167 1.5103,0.24491 1.1086,-0.56814 2.5409,0.17726 0,0 -1.2996,0.56901 -2.2153,1.48467 -2.4903,1.04519 -2.4543,3.60246 -4.4644,4.45259 2.1983,0.3239 4.7961,-4.66632 5.8069,-3.94307 0.6205,1.99143 -3.0592,2.50367 -2.9453,7.15903 1.106,-2.98159 3.3812,-3.71441 4.5258,-5.88189 0,0 0.6999,2.14364 -0.3871,4.35258 -0.9319,1.73428 -2.6394,2.95575 -1.6057,5.10705 0.104,-1.50395 0.8039,-3.11943 1.4729,-3.2344 2.0043,1.90779 -0.015,1.51929 -0.4023,3.37765 l 0.5368,1.53055 c -0.1512,-1.24531 0.6601,-1.88764 1.0501,-2.05402 0.397,1.83171 0.1682,4.0227 0.5283,4.02327 0.3602,5.7e-4 0.2548,-2.17701 0.5675,-4.02327 0.39,0.1663 1.2013,0.88672 1.0891,2.09303 l 0.4588,-1.56956 c -0.073,-1.62422 -2.4067,-1.46986 -0.4024,-3.37765 0.6691,0.1149 1.369,1.73045 1.4729,3.2344 1.0337,-2.1513 -0.6349,-3.56787 -1.5667,-5.30215 -1.087,-2.20894 -0.153,-4.15748 -0.153,-4.15748 1.1446,2.16748 3.1466,2.9003 4.2526,5.88189 0.1138,-4.65536 -3.5268,-5.12859 -2.9063,-7.12002 1.0108,-0.72326 3.5696,4.22815 5.7679,3.90406 -2.0101,-0.85013 -1.974,-3.4074 -4.4644,-4.45259 -0.9156,-0.91566 -2.2543,-1.48467 -2.2543,-1.48467 1.1721,-0.7197 1.2517,-0.0952 2.5799,-0.17726 -1.4387,-0.75137 -1.2211,-1.73938 -1.7431,-2.62167 0,0 3.1236,1.14856 3.8103,2.17867 0.8117,1.17948 0.6407,2.82368 2.9797,3.51572 -1.754,-1.16716 -1.4286,-3.23517 -1.4286,-3.23517 2.1354,0.9738 1.4931,1.81905 4.2713,1.72521 -2.703,-0.96994 -1.4925,-2.03785 -3.3233,-2.7625 l -2.6025,-1.02992 c -1.5601,-0.6175 -2.7673,-2.28317 -2.2672,-4.4976 0.9018,0.13077 1.2689,2.95733 4.0251,3.28313 -2.2332,-1.48158 -1.821,-2.73699 -2.3817,-3.82579 -0.336,-0.65231 -1.8943,-1.59886 -2.5811,-2.85789 -0.6867,-1.25904 2.7472,-4.57811 2.7472,-4.57811 0,0 3.7774,-3.09025 5.3799,-0.45774 1.6024,2.63256 -2.2488,6.06282 -2.2488,6.06282 1.4432,3.81211 3.8897,3.36635 7.399,5.61169 0.023,0.28536 0.074,0.52067 0.1346,0.73164 -0.6787,0.43608 -1.3615,1.26252 -1.7313,1.75268 -0.5568,0.7383 -1.0865,1.7596 -0.9885,2.61649 0.023,0.18747 0.1016,0.38053 0.2169,0.55888 -0.086,1.17714 0.5744,2.03513 2.0871,2.74126 -0.6932,-0.73115 -1.0513,-1.38214 -1.1045,-2.04284 0.3066,0.0457 0.6167,-0.0567 0.855,-0.4046 0.6838,-0.99787 0.4318,-1.88693 0.5087,-2.9701 0.03,-0.45143 0.3898,-0.91903 0.7331,-1.33262 0.7982,0.53582 1.9794,-0.31597 2.1026,-1.22627 0.537,0.0382 1.124,0.10242 1.4729,0.39201 0.8357,0.69339 1.3038,1.49042 2.4976,1.68624 0.4963,0.0813 0.8113,-0.15118 0.9738,-0.49539 0.6518,0.54033 0.9188,1.35946 0.8837,2.6165 0.6981,-1.63658 0.5596,-2.75517 -0.454,-3.59252 -0.1448,-0.11943 -0.2785,-0.19691 -0.4024,-0.24643 -0.049,-0.13341 -0.1141,-0.25587 -0.1969,-0.35565 -0.5513,-0.66327 -1.6553,-0.98676 -2.5736,-1.09485 -0.3444,-0.0404 -0.8372,-0.085 -1.3423,-0.082 -0.4529,0.003 -0.9125,0.0465 -1.2868,0.16252 -0.1243,-0.10091 -0.2819,-0.192 -0.4673,-0.27326 0.4735,-0.28422 1.0117,-0.58639 1.4788,-0.54705 1.0817,0.0911 1.9212,0.47679 3.0122,-0.0442 l 7e-4,-7.9e-4 c 0.4903,-0.23471 0.5997,-0.64917 0.4976,-1.05498 0.6261,0.004 1.2832,0.27628 2.048,0.83425 -0.7736,-1.22052 -1.5781,-1.79331 -2.5308,-1.77188 -0.055,10e-4 -0.1127,0.0113 -0.169,0.0151 -0.1187,-0.0831 -0.2438,-0.14853 -0.3715,-0.18368 -0.8315,-0.22904 -1.9222,0.13644 -2.7376,0.5729 -0.6423,0.34393 -1.8284,1.04897 -2.2569,1.7822 -0.034,-0.0302 -0.072,-0.0575 -0.1077,-0.0866 0.2941,-0.54164 0.6394,-1.27166 1.1488,-1.52008 0.976,-0.47607 1.8948,-0.57423 2.5648,-1.58143 0.4467,-0.67129 -0.026,-1.25284 -0.6357,-1.49946 0.4361,-0.49693 1.1101,-0.80602 2.0997,-0.98044 -0.4359,-0.0888 -0.8292,-0.13266 -1.1842,-0.13077 -0.9988,0.004 -1.6906,0.37757 -2.1543,1.14213 -0.7036,0.33336 -1.3261,1.08495 -1.7416,1.77559 -0.2941,0.48884 -0.7607,1.33923 -0.9465,2.09302 -1.0821,-0.92073 -2.1128,-1.84188 -3.6914,-2.76264 1.9969,-2.62103 3.5719,-5.72633 3.1244,-8.81881 0.4474,-0.15572 0.9846,-0.29178 1.6427,-0.35452 -2.2182,-0.86691 -2.0223,-2.47907 -3.3526,-3.33188 -3.0603,-2.52409 -8.7582,0.48654 -8.7582,0.48654 0.9222,-1.60585 1.6126,-3.25766 1.7984,-5.01075 0,0 0.3391,1.04201 0.6386,1.25953 0.4744,0.34431 1.354,0.36699 1.354,0.36699 l -0.3344,-4.29608 0.3741,0.0907 c 0.1251,2.09299 0.4711,2.92403 0.9701,3.63311 0.527,0.74869 1.2529,0.76929 1.2529,0.76929 -0.7947,-1.31131 -1.3396,-2.57054 -1.3282,-4.18462 l 0.1958,0.0472 c 0,0 0.7976,2.98783 2.0332,3.59471 0.5866,0.288 1.9403,-0.27968 1.9403,-0.27968 l -1.5814,-2.63717 0.5278,-0.0567 c 0.8036,1.2401 1.0323,2.03852 1.9912,2.86012 0.4424,0.37908 1.024,0.18671 1.024,0.18671 -1.125,-0.93891 -1.6501,-2.0473 -2.3049,-3.12295 l 0.175,-0.0189 c 0,0 3.3187,2.73838 5.1303,2.98412 1.2517,0.1697 2.7346,-0.92356 2.7346,-0.92356 -1.9796,-0.58227 -3.3925,-1.8443 -4.6386,-3.30678 l 0.1455,-0.19654 c 1.4135,1.14932 3.1496,2.34101 4.6719,2.73831 0.5502,0.14362 1.2381,-0.39942 1.2381,-0.39942 -2.2783,-0.46704 -3.9863,-1.46513 -5.5623,-2.80917 l 0.195,-0.26343 c 0,0 4.7014,2.70587 6.9178,1.82573 0.6171,-0.24491 1.052,-1.69066 1.052,-1.69066 -2.4543,0.008 -5.2492,-1.27007 -6.8815,-2.56698 l 0.1024,-0.16403 c 2.2892,1.10597 5.0419,1.9355 6.7287,2.07311 1.0485,0.0854 1.2403,-0.53084 1.2403,-0.53084 -2.8226,-0.19313 -5.2573,-0.9792 -7.6479,-2.05685 l 0.093,-0.14929 c 0,0 5.3999,1.67743 8.4467,1.00924 0.965,-0.21165 1.4884,-2.30789 1.4884,-2.30789 -3.7845,0.4244 -5.7354,-0.24831 -8.7139,-0.99742 l 0.243,-0.31748 c 4.8663,0.92504 7.1835,0.91469 9.3171,0.29178 0.5788,-0.16894 0.9679,-1.10744 0.9679,-1.10744 -2.6018,1.05959 -6.9373,0.92013 -9.8074,0.19352 l 0.1025,-0.13342 6.0494,0.13719 c 2.5316,0.0499 4.833,-2.90713 5.0056,-5.27062 -2.2401,2.51369 -7.2707,3.17782 -10.4061,2.7981 l 0.2037,-0.38317 c 5.4281,-0.58821 8.0184,-2.10191 9.2965,-3.13769 0.8754,-0.70942 0.7154,-1.86565 0.7154,-1.86565 -1.7017,1.81893 -4.4741,3.54954 -9.6169,4.26138 l 0.1807,-0.34016 c 3.4253,-1.08423 7.1151,-3.03209 9.2788,-5.80218 0.9836,-1.91297 0.7557,-3.33127 -0.6726,-4.66666 -2.0538,4.5089 -5.1481,4.75442 -7.5947,6.77522 l 0.086,-0.63126 c 2.8949,-1.82645 5.6482,-2.62378 7.645,-7.19826 0.8399,-1.92419 0.2347,-2.91072 0.2317,-2.91473 -0.9861,5.56585 -4.6428,7.64156 -7.7793,9.39761 l 0.03,-0.21468 c 2.1693,-2.39278 5.4536,-4.20885 6.7169,-8.38466 1.2763,-4.2187 -0.8276,-8.52192 -3.2175,-8.62756 0.8091,4.58789 -0.2407,10.51824 -2.3802,11.96463 0,0 0.6165,-1.49912 0.019,-2.33005 -1.6945,2.32302 -4.8449,3.26563 -6.1167,3.766 -1.7285,0.68009 -5.4943,3.89186 -5.6088,5.72315 -0.1145,1.83137 2.6327,2.74708 2.9761,3.31937 0.3432,0.57226 -2.747,4.34922 -3.5482,4.34922 -0.8012,0 -0.9159,-1.37318 -2.175,-1.48766 -1.259,-0.11452 -3.3191,2.17425 -4.1203,2.17425 -0.4234,-2.39169 -0.6038,-3.05851 -0.4474,-3.52143 0.1693,-0.50105 0.8365,-0.28157 1.3356,-0.18897 -1.701,-3.01713 -0.9038,-6.07147 -0.7406,-7.90043 0.2903,-3.2553 0.3951,-7.63294 -0.079,-10.40908 -0.094,-0.9134 0.5415,-0.47055 1.1348,-0.5147 -0.6113,-0.24982 -0.3043,-0.68696 -1.1473,-0.9123 0.3942,-0.26343 0.6035,-0.65934 1.9507,-0.33827 -2.8147,-1.47406 -2.8159,-2.44369 -6.3524,-2.99312 -2.5218,-0.39175 -4.5889,0.53661 -6.1551,1.77188 -1.5807,-0.52782 -4.6787,0.95735 -5.0772,2.3492 -0.156,0.54595 0.03,0.53072 0.3455,0.39795 1.0054,-0.56149 1.8262,-0.38503 2.6445,0.40902 1.1706,-0.47993 2.6307,0.5659 3.1496,1.32892 -3.2629,-1.25042 -3.9576,0.8124 -7.3312,0.33751 1.6053,1.45867 5.6337,-0.63202 7.2381,1.11405 -2.2494,0.58462 -0.5421,1.37204 -3.2839,1.68106 0.7601,1.16818 2.238,0.85735 4.6852,0.83429 0.9324,5.77259 -3.2092,11.28511 -5.1157,12.81661 0.2135,0.0435 1.2056,-0.13644 1.332,0.23849 0.1266,0.37455 -1.6221,2.16325 -1.8096,3.49946 0,0 -2.8613,-2.28869 -4.1203,-2.17425 -1.2591,0.11452 -1.3738,1.48763 -2.175,1.48763 -0.8012,0 -3.8916,-3.77693 -3.5482,-4.34922 0.3436,-0.5723 3.0905,-1.488 2.976,-3.31933 -0.1145,-1.8313 -3.8802,-5.04307 -5.6087,-5.72319 -1.2717,-0.50037 -4.4222,-1.44295 -6.1167,-3.76596 -0.5987,0.83093 0.019,2.33004 0.019,2.33004 -2.13943,-1.44639 -3.18924,-7.37673 -2.38022,-11.96462 z m 59.88438,7.82952 c 10e-5,-3.8e-4 -1e-4,-0.001 0,-0.001 h -8e-4 z m -64.13467,0 7.1e-4,-0.001 h -7.1e-4 c 7e-5,3.8e-4 -8e-5,0.001 0,0.001 z m 31.42057,-4.86898 4.0266,0.72869 c -0.5302,0.0189 -1.2009,-0.0265 -1.8494,-0.0556 0.2691,0.17461 0.4989,0.39027 0.4784,0.57955 -0.041,0.37607 -1.0528,0.50333 -1.337,0.45181 -0.2842,-0.0518 -1.23,-0.5342 -1.1894,-0.9103 0.011,-0.10658 0.1013,-0.19313 0.2306,-0.26154 0.059,-0.27704 -0.2563,-0.34621 -0.3595,-0.53303 z"
         sodipodi:nodetypes="cscccscccccccscccccccscccscccscccscccscccscccscccscccscccscccccccccccccsccccsccccccccsccscccsccssccccsccccccscccccccccccccccccccccczccccccccccccccccccccccsscscccsscccsscccsccsccssccsccccscccccscccccccccccccscccscccscccscccscccscccscccccccscccscccccccscccccccscccscccsscsscscsccccscscccccccczcsssssccccccccccccccccccccc"
         inkscape:export-filename="C:\Users\bjpco\Desktop\rect10036-4-02-93.png"
         inkscape:export-xdpi="300"
         inkscape:export-ydpi="300" />
      <path
         sodipodi:nodetypes="cscccc"
         d="m 1067.2539,580.1433 c 0,22.61597 -18.3322,40.94985 -40.9483,40.94985 -22.6161,0 -40.95002,-18.33388 -40.95002,-40.94985 v -61.61297 h 81.89832 z"
         style="font-variation-settings:normal;vector-effect:none;fill:none;fill-opacity:1;fill-rule:evenodd;stroke:#000000;stroke-width:0.684094;stroke-linecap:round;stroke-linejoin:round;stroke-miterlimit:4;stroke-dasharray:none;stroke-dashoffset:0;stroke-opacity:1;paint-order:markers stroke fill;stop-color:#000000"
         id="path7991-3-3-4-4"
         inkscape:export-filename="C:\Users\bjpco\Desktop\rect10036-4-02-93.png"
         inkscape:export-xdpi="300"
         inkscape:export-ydpi="300" />
    </g>
  </g>
</svg>
